<svg width="41" height="40" viewBox="0 0 41 40" fill="none" xmlns="http://www.w3.org/2000/svg">
<path d="M29.0414 3.33304C31.3048 3.33963 33.4737 4.21978 35.0742 5.78127C36.6747 7.34276 37.5769 9.4587 37.5836 11.667V28.333C37.5769 30.5413 36.6747 32.6572 35.0742 34.2187C33.4737 35.7802 31.3048 36.6604 29.0414 36.667H11.9586C9.69516 36.6604 7.52633 35.7802 5.9258 34.2187C4.32528 32.6572 3.42312 30.5413 3.41636 28.333V11.667C3.42312 9.4587 4.32528 7.34276 5.9258 5.78127C7.52633 4.21978 9.69516 3.33963 11.9586 3.33304H29.0414ZM29.0414 0H11.9586C5.38125 0 0 5.25 0 11.667V28.333C0 34.75 5.38125 40 11.9586 40H29.0414C35.6187 40 41 34.75 41 28.333V11.667C41 5.25 35.6187 0 29.0414 0Z" fill="white"/>
<path d="M32 11C31.6044 11 31.2178 10.8827 30.8889 10.6629C30.56 10.4432 30.3036 10.1308 30.1522 9.76536C30.0009 9.39991 29.9613 8.99778 30.0384 8.60982C30.1156 8.22186 30.3061 7.86549 30.5858 7.58579C30.8655 7.30608 31.2219 7.1156 31.6098 7.03843C31.9978 6.96126 32.3999 7.00087 32.7654 7.15224C33.1308 7.30362 33.4432 7.55996 33.6629 7.88886C33.8827 8.21776 34 8.60444 34 9C34.0006 9.2628 33.9492 9.52313 33.8489 9.76603C33.7486 10.0089 33.6013 10.2296 33.4155 10.4155C33.2296 10.6013 33.0089 10.7486 32.766 10.8489C32.5231 10.9492 32.2628 11.0006 32 11Z" fill="white"/>
<path d="M20.5 14.1664C21.7527 14.1664 22.9772 14.5378 24.0188 15.2338C25.0603 15.9297 25.8721 16.9189 26.3515 18.0762C26.8309 19.2335 26.9563 20.507 26.7119 21.7356C26.4675 22.9642 25.8643 24.0928 24.9785 24.9785C24.0928 25.8643 22.9642 26.4675 21.7356 26.7119C20.507 26.9563 19.2335 26.8309 18.0762 26.3515C16.9189 25.8721 15.9297 25.0603 15.2338 24.0188C14.5378 22.9772 14.1664 21.7527 14.1664 20.5C14.1682 18.8208 14.836 17.2108 16.0234 16.0234C17.2108 14.836 18.8208 14.1682 20.5 14.1664ZM20.5 11C18.6211 11 16.7844 11.5572 15.2221 12.601C13.6598 13.6449 12.4422 15.1286 11.7231 16.8645C11.0041 18.6004 10.816 20.5105 11.1825 22.3534C11.5491 24.1962 12.4539 25.8889 13.7825 27.2175C15.1111 28.5461 16.8038 29.4509 18.6466 29.8175C20.4895 30.184 22.3996 29.9959 24.1355 29.2769C25.8714 28.5578 27.3551 27.3402 28.399 25.7779C29.4428 24.2156 30 22.3789 30 20.5C30 17.9804 28.9991 15.5641 27.2175 13.7825C25.4359 12.0009 23.0196 11 20.5 11Z" fill="white"/>
</svg>
