<svg width="42" height="48" viewBox="0 0 42 48" fill="none" xmlns="http://www.w3.org/2000/svg">
<path fill-rule="evenodd" clip-rule="evenodd" d="M17.1912 31.2447C17.1461 31.3801 17.101 31.5021 17.071 31.6104C15.1173 38.5058 14.9069 40.0366 12.893 43.2472C11.9312 44.7645 10.8642 46.214 9.66189 47.5958C9.52663 47.7583 9.4064 47.948 9.13589 47.9073C8.83532 47.8532 8.82029 47.6093 8.79023 47.4061C8.47463 45.3063 8.29429 43.2066 8.36943 41.0933C8.47463 38.3297 8.85035 37.395 12.7878 22.4527C12.8479 22.2225 12.7878 22.0328 12.6977 21.8296C11.7509 19.5402 11.5705 17.2101 12.3971 14.8394C14.1855 9.74577 20.5877 9.35291 21.7148 13.5524C22.4061 16.1534 20.5726 19.5537 19.175 24.5932C18.0178 28.7385 23.4281 31.6917 28.0719 28.6708C32.34 25.8801 34.0082 19.1744 33.6926 14.433C33.0764 4.96373 21.5645 2.91814 14.2606 5.96619C5.88971 9.46129 3.98109 18.8086 7.76829 23.0895C8.2492 23.6313 8.60989 23.97 8.4596 24.5119C8.21915 25.3653 7.99372 26.2323 7.73823 27.0858C7.54286 27.7225 6.95674 27.9528 6.2504 27.6954C4.85274 27.1942 3.69555 26.3813 2.74875 25.3382C-0.467368 21.7483 -1.38411 14.6633 2.86897 8.66202C7.57292 2.0105 16.3195 -0.67178 24.3147 0.141033C33.8579 1.11641 39.8843 6.99575 41.0115 13.6608C41.5225 16.6953 41.1618 24.1868 36.4278 29.4836C30.9874 35.5661 22.1657 35.9725 18.1079 32.2336C17.7473 31.922 17.4918 31.5969 17.1912 31.2447Z" fill="white"/>
</svg>
