<svg width="159" height="53" viewBox="0 0 159 53" fill="none" xmlns="http://www.w3.org/2000/svg">
<path d="M1.43925 8.52C1.43925 6.45067 2.21792 4.872 3.77525 3.784C5.33258 2.696 7.28458 2.152 9.63125 2.152C12.4473 2.152 14.8686 2.728 16.8953 3.88V8.36C14.9966 6.99467 12.6926 6.33333 9.98325 6.376C7.55125 6.41867 6.33525 7.112 6.33525 8.456C6.33525 9.05333 6.63392 9.576 7.23125 10.024C7.84992 10.472 8.60725 10.8347 9.50325 11.112C10.4206 11.368 11.4019 11.7093 12.4473 12.136C13.5139 12.5413 14.4953 12.9893 15.3913 13.48C16.3086 13.9493 17.0659 14.6533 17.6632 15.592C18.2819 16.5307 18.5913 17.6187 18.5913 18.856C18.5913 20.072 18.3566 21.1173 17.8873 21.992C17.4393 22.8667 16.7993 23.5493 15.9673 24.04C15.1353 24.5307 14.2179 24.8827 13.2153 25.096C12.2126 25.3307 11.0926 25.448 9.85525 25.448C6.74058 25.448 3.97792 24.776 1.56725 23.432V18.856C3.95658 20.4347 6.60192 21.224 9.50325 21.224C12.2979 21.224 13.6953 20.5093 13.6953 19.08C13.6953 18.44 13.3859 17.8853 12.7673 17.416C12.1699 16.9253 11.4126 16.5413 10.4953 16.264C9.59925 15.9653 8.61792 15.6133 7.55125 15.208C6.50592 14.7813 5.52458 14.3333 4.60725 13.864C3.71125 13.3733 2.95392 12.6693 2.33525 11.752C1.73792 10.8347 1.43925 9.75733 1.43925 8.52ZM19.5723 2.6H38.1003V6.92H31.2203V25H26.4523V6.92H19.5723V2.6ZM55.5873 2.6H60.3553V16.584C60.3553 17.864 60.1739 19.016 59.8113 20.04C59.4486 21.064 58.9579 21.9067 58.3393 22.568C57.7206 23.2293 56.9846 23.784 56.1313 24.232C55.2779 24.68 54.3819 24.9893 53.4433 25.16C52.5259 25.352 51.5553 25.448 50.5313 25.448C49.5073 25.448 48.5259 25.352 47.5873 25.16C46.6699 24.9893 45.7846 24.68 44.9313 24.232C44.0779 23.784 43.3419 23.2293 42.7233 22.568C42.1046 21.9067 41.6139 21.064 41.2513 20.04C40.8886 19.016 40.7073 17.864 40.7073 16.584V2.6H45.5073V16.328C45.5073 19.528 47.1819 21.128 50.5313 21.128C53.9019 21.128 55.5873 19.528 55.5873 16.328V2.6ZM64.9313 2.6H73.3153C77.1553 2.6 80.0673 3.624 82.0513 5.672C84.0566 7.69867 85.0593 10.408 85.0593 13.8C85.0593 17.192 84.0566 19.912 82.0513 21.96C80.0673 23.9867 77.1553 25 73.3153 25H64.9313V2.6ZM78.4033 19.016C79.5766 17.8427 80.1632 16.104 80.1632 13.8C80.1632 11.496 79.5766 9.75733 78.4033 8.584C77.2513 7.41067 75.5553 6.824 73.3153 6.824H69.7313V20.776H73.3153C75.5553 20.776 77.2513 20.1893 78.4033 19.016ZM88.6813 2.6H93.4813V25H88.6813V2.6ZM97.763 18.184C97.2723 16.7973 97.027 15.336 97.027 13.8C97.027 12.264 97.2723 10.8027 97.763 9.416C98.275 8.02933 99.011 6.792 99.971 5.704C100.952 4.616 102.211 3.752 103.747 3.112C105.283 2.472 107.011 2.152 108.931 2.152C110.851 2.152 112.579 2.472 114.115 3.112C115.651 3.752 116.899 4.616 117.859 5.704C118.84 6.792 119.576 8.02933 120.067 9.416C120.579 10.8027 120.835 12.264 120.835 13.8C120.835 15.336 120.579 16.7973 120.067 18.184C119.576 19.5707 118.84 20.808 117.859 21.896C116.899 22.984 115.651 23.848 114.115 24.488C112.579 25.128 110.851 25.448 108.931 25.448C107.011 25.448 105.283 25.128 103.747 24.488C102.211 23.848 100.952 22.984 99.971 21.896C99.011 20.808 98.275 19.5707 97.763 18.184ZM114.083 18.952C115.299 17.5867 115.907 15.8693 115.907 13.8C115.907 11.7307 115.299 10.0133 114.083 8.648C112.867 7.28267 111.15 6.6 108.931 6.6C106.691 6.6 104.963 7.28267 103.747 8.648C102.531 10.0133 101.923 11.7307 101.923 13.8C101.923 15.8693 102.531 17.5867 103.747 18.952C104.963 20.3173 106.691 21 108.931 21C111.15 21 112.867 20.3173 114.083 18.952ZM124.848 3.208H138.672V7.336L129.168 7.304L128.88 11.56C129.904 11.3467 130.843 11.24 131.696 11.24C134.043 11.24 135.952 11.8053 137.424 12.936C138.917 14.0667 139.664 15.816 139.664 18.184C139.664 20.5733 138.779 22.3867 137.008 23.624C135.237 24.84 133.051 25.448 130.448 25.448C127.803 25.448 125.467 24.9573 123.44 23.976V19.528C125.253 20.68 127.408 21.256 129.904 21.256C131.397 21.256 132.592 20.9893 133.488 20.456C134.405 19.9227 134.864 19.144 134.864 18.12C134.864 15.9867 133.093 14.92 129.552 14.92C127.632 14.92 125.808 15.2293 124.08 15.848L124.848 3.208ZM141.644 3.208H158.38V6.664L149.452 25H144.268L152.876 7.336H141.644V3.208Z" fill="white"/>
<path d="M3.73555 49H2.45555L8.69555 35H10.0356L16.2556 49H14.9756L13.3156 45.24H5.41555L3.73555 49ZM9.17555 36.66L5.87555 44.12H12.8356L9.53555 36.66C9.49555 36.5533 9.43555 36.4067 9.35555 36.22C9.27555 36.4067 9.21555 36.5533 9.17555 36.66ZM23.2134 49H22.0334V35H27.4134C28.0667 35 28.68 35.0733 29.2534 35.22C29.8267 35.3667 30.3667 35.5933 30.8734 35.9C31.38 36.2067 31.78 36.64 32.0734 37.2C32.38 37.76 32.5334 38.4133 32.5334 39.16C32.5334 40.4 32.1467 41.3533 31.3734 42.02C30.6 42.6867 29.64 43.0933 28.4934 43.24L33.4734 49H31.9934L27.1134 43.34H23.2134V49ZM23.2334 36.14V42.2H27.4934C28.56 42.2 29.4667 41.96 30.2134 41.48C30.96 41 31.3334 40.2267 31.3334 39.16C31.3334 38.0933 30.96 37.3267 30.2134 36.86C29.48 36.38 28.5734 36.14 27.4934 36.14H23.2334ZM38.3848 42.14C38.3848 40.9667 38.5914 39.9 39.0048 38.94C39.4314 37.98 39.9914 37.2067 40.6848 36.62C41.3781 36.02 42.1514 35.5667 43.0048 35.26C43.8581 34.94 44.7448 34.78 45.6648 34.78C47.1314 34.78 48.4381 35.0933 49.5848 35.72V36.92C48.5314 36.24 47.2848 35.9 45.8448 35.9C45.0581 35.9 44.2981 36.0333 43.5648 36.3C42.8448 36.5533 42.1781 36.9267 41.5648 37.42C40.9648 37.9133 40.4848 38.5667 40.1248 39.38C39.7648 40.1933 39.5848 41.1133 39.5848 42.14C39.5848 43.1133 39.7648 43.9933 40.1248 44.78C40.4981 45.5533 40.9848 46.18 41.5848 46.66C42.1981 47.1267 42.8714 47.4867 43.6048 47.74C44.3514 47.98 45.1181 48.1 45.9048 48.1C47.3981 48.1 48.6714 47.76 49.7248 47.08V48.26C48.5514 48.9 47.1981 49.22 45.6648 49.22C44.7714 49.22 43.8981 49.0667 43.0448 48.76C42.1914 48.4533 41.4114 48.02 40.7048 47.46C40.0114 46.8867 39.4514 46.14 39.0248 45.22C38.5981 44.3 38.3848 43.2733 38.3848 42.14ZM66.3098 35H67.4898V49H66.3098V42.54H57.2298V49H56.0498V35H57.2298V41.4H66.3098V35ZM74.9623 35H76.1423V49H74.9623V35ZM81.9609 35H93.3809V36.14H88.2609V49H87.0809V36.14H81.9609V35ZM99.1935 35H108.494V36.14H100.374V41.38H107.894V42.52H100.374V47.86H108.634V49H99.1935V35ZM114.021 42.14C114.021 40.9667 114.228 39.9 114.641 38.94C115.068 37.98 115.628 37.2067 116.321 36.62C117.015 36.02 117.788 35.5667 118.641 35.26C119.495 34.94 120.381 34.78 121.301 34.78C122.768 34.78 124.075 35.0933 125.221 35.72V36.92C124.168 36.24 122.921 35.9 121.481 35.9C120.695 35.9 119.935 36.0333 119.201 36.3C118.481 36.5533 117.815 36.9267 117.201 37.42C116.601 37.9133 116.121 38.5667 115.761 39.38C115.401 40.1933 115.221 41.1133 115.221 42.14C115.221 43.1133 115.401 43.9933 115.761 44.78C116.135 45.5533 116.621 46.18 117.221 46.66C117.835 47.1267 118.508 47.4867 119.241 47.74C119.988 47.98 120.755 48.1 121.541 48.1C123.035 48.1 124.308 47.76 125.361 47.08V48.26C124.188 48.9 122.835 49.22 121.301 49.22C120.408 49.22 119.535 49.0667 118.681 48.76C117.828 48.4533 117.048 48.02 116.341 47.46C115.648 46.8867 115.088 46.14 114.661 45.22C114.235 44.3 114.021 43.2733 114.021 42.14ZM130.026 35H141.446V36.14H136.326V49H135.146V36.14H130.026V35ZM146.301 38.34C146.301 37.1933 146.748 36.3133 147.641 35.7C148.535 35.0867 149.628 34.78 150.921 34.78C152.535 34.78 153.908 35.1067 155.041 35.76V36.96C153.921 36.2533 152.575 35.9 151.001 35.9C149.975 35.9 149.135 36.1 148.481 36.5C147.828 36.8867 147.501 37.4867 147.501 38.3C147.501 38.8333 147.655 39.2933 147.961 39.68C148.281 40.0533 148.688 40.36 149.181 40.6C149.688 40.8267 150.241 41.04 150.841 41.24C151.455 41.4267 152.061 41.6333 152.661 41.86C153.275 42.0733 153.828 42.3267 154.321 42.62C154.828 42.9133 155.235 43.3133 155.541 43.82C155.861 44.3267 156.021 44.92 156.021 45.6C156.021 46.44 155.781 47.14 155.301 47.7C154.821 48.26 154.221 48.66 153.501 48.9C152.781 49.1267 151.968 49.2333 151.061 49.22C149.301 49.22 147.708 48.8267 146.281 48.04V46.86C147.695 47.6867 149.261 48.1 150.981 48.1C152.115 48.1 153.035 47.9067 153.741 47.52C154.461 47.1333 154.821 46.52 154.821 45.68C154.821 45.12 154.661 44.64 154.341 44.24C154.035 43.8267 153.628 43.5 153.121 43.26C152.628 43.02 152.075 42.8 151.461 42.6C150.861 42.4 150.255 42.1933 149.641 41.98C149.041 41.7533 148.488 41.5 147.981 41.22C147.488 40.94 147.081 40.56 146.761 40.08C146.455 39.5867 146.301 39.0067 146.301 38.34Z" fill="white"/>
</svg>
