<svg width="29" height="30" viewBox="0 0 29 30" fill="none" xmlns="http://www.w3.org/2000/svg">
<path d="M28.5471 0.470617C28.3353 0.251554 28.0668 0.100494 27.7739 0.0356228C27.4811 -0.0292482 27.1763 -0.00516489 26.8964 0.104974L1.00107 10.2445H0.995892C0.697316 10.3633 0.441469 10.5746 0.263292 10.8494C0.0851163 11.1243 -0.00670102 11.4494 0.000380918 11.7802C0.00746285 12.1111 0.113099 12.4316 0.302861 12.698C0.492623 12.9644 0.757259 13.1638 1.06063 13.2688L1.08717 13.2775L9.97507 17.2038C10.1484 17.2583 10.3326 17.2647 10.5091 17.2225C10.6856 17.1803 10.8483 17.091 10.981 16.9634L25.2457 3.21294C25.2882 3.16897 25.3387 3.13409 25.3942 3.11029C25.4497 3.08649 25.5093 3.07424 25.5694 3.07424C25.6295 3.07424 25.689 3.08649 25.7445 3.11029C25.8001 3.13409 25.8505 3.16897 25.893 3.21294C25.9355 3.25691 25.9693 3.30911 25.9923 3.36656C26.0153 3.42402 26.0271 3.48559 26.0271 3.54778C26.0271 3.60996 26.0153 3.67154 25.9923 3.72899C25.9693 3.78644 25.9355 3.83864 25.893 3.88261L12.6007 18.6329C12.4773 18.7702 12.391 18.9385 12.3502 19.1211C12.3094 19.3038 12.3156 19.4942 12.3683 19.6736L16.1649 28.8736C16.1688 28.887 16.1727 28.899 16.1772 28.9118C16.3843 29.5325 16.9087 29.9705 17.5424 30C17.5702 30 17.58 30 17.6071 30C17.9271 30.0019 18.2402 29.9041 18.5057 29.7195C18.7712 29.5349 18.9769 29.2718 19.096 28.9647L28.896 2.18298C29.004 1.8932 29.0285 1.57725 28.9666 1.27336C28.9047 0.969473 28.759 0.69065 28.5471 0.470617Z" fill="white"/>
</svg>
