<svg width="41" height="42" viewBox="0 0 41 42" fill="none" xmlns="http://www.w3.org/2000/svg">
<path d="M40.5916 12.6001C40.5916 12.6001 40.1912 9.70444 38.958 8.43296C37.3965 6.75952 35.6508 6.75132 34.85 6.65288C29.1164 6.22632 20.508 6.22632 20.508 6.22632H20.492C20.492 6.22632 11.8836 6.22632 6.15 6.65288C5.34922 6.75132 3.60352 6.75952 2.04199 8.43296C0.808789 9.70444 0.416406 12.6001 0.416406 12.6001C0.416406 12.6001 0 16.0044 0 19.4005V22.5834C0 25.9794 0.408398 29.3837 0.408398 29.3837C0.408398 29.3837 0.808789 32.2794 2.03398 33.5509C3.59551 35.2244 5.64551 35.1669 6.5584 35.3474C9.8416 35.6673 20.5 35.7658 20.5 35.7658C20.5 35.7658 29.1164 35.7494 34.85 35.331C35.6508 35.2326 37.3965 35.2244 38.958 33.5509C40.1912 32.2794 40.5916 29.3837 40.5916 29.3837C40.5916 29.3837 41 25.9876 41 22.5834V19.4005C41 16.0044 40.5916 12.6001 40.5916 12.6001ZM16.2639 26.447V14.6427L27.3387 20.5654L16.2639 26.447Z" fill="white"/>
</svg>
